<svg xmlns="http://www.w3.org/2000/svg" xmlns:xlink="http://www.w3.org/1999/xlink" viewBox="0 0 23.35 31.328">
  <defs>
    <style>
      .cls-1 {
        fill: #fff;
      }

      .cls-2 {
        clip-path: url(#clip-path);
      }
    </style>
    <clipPath id="clip-path">
      <path id="Tracé_38" data-name="Tracé 38" class="cls-1" d="M0,0H31.328V23.35H0Z"/>
    </clipPath>
  </defs>
  <g id="Groupe_47" data-name="Groupe 47" class="cls-2" transform="translate(0 31.328) rotate(-90)">
    <g id="Groupe_46" data-name="Groupe 46" transform="translate(0 0)">
      <path id="Tracé_37" data-name="Tracé 37" class="cls-1" d="M17.319,5.283l-.041,0h-4.84a.558.558,0,0,1,0-1.117H16.56C15.42.938,13.34.7,11.136,1.678,8.548,2.829,5.742,5.542,3.89,7.394a9.133,9.133,0,0,0-2.775,6.248,8.3,8.3,0,0,0,2.5,6.091c2.509,2.509,5.63,2.506,8.97,2.5h.305v0h5.022a1.691,1.691,0,0,0,0-3.382H16.589v0h-.008a.557.557,0,0,1-.547-.523.515.515,0,0,1,0-.056.558.558,0,0,1,.559-.558h2.753a1.692,1.692,0,0,0,0-3.383H16.7a.557.557,0,0,1-.529-.56v-.018a.558.558,0,0,1,.558-.559h3.859a1.692,1.692,0,0,0,0-3.383H17.148v0a.622.622,0,0,1-.086-.006.57.57,0,0,1,.089-1.131H28.52a1.691,1.691,0,0,0,0-3.382h-11.2ZM31.328,6.976A2.815,2.815,0,0,1,28.52,9.785H22.813a2.8,2.8,0,0,1-.238,3.7,2.822,2.822,0,0,1-1.123.689,2.81,2.81,0,0,1-1.394,4.564,2.808,2.808,0,0,1-2.147,4.615H12.889v0h-.305c-3.582,0-6.929.006-9.761-2.826A9.4,9.4,0,0,1,0,13.621,10.244,10.244,0,0,1,3.1,6.6C5.009,4.7,7.907,1.9,10.685.662c2.924-1.3,5.665-.959,7.049,3.506H28.52a2.813,2.813,0,0,1,2.808,2.808"/>
    </g>
  </g>
</svg>
