<svg xmlns="http://www.w3.org/2000/svg" viewBox="0 0 35.411 51.567">
  <defs>
    <style>
      .cls-1 {
        fill: #fff;
      }
    </style>
  </defs>
  <g id="Groupe_62" data-name="Groupe 62" transform="translate(0)">
    <path id="Tracé_48" data-name="Tracé 48" class="cls-1" d="M-167.363-173.639a14.948,14.948,0,0,1-14.931,14.931,14.948,14.948,0,0,1-14.931-14.931v-16.155a14.952,14.952,0,0,1,13.544-14.867v14.214a1.387,1.387,0,0,0,1.387,1.387,1.387,1.387,0,0,0,1.387-1.387v-14.214a14.952,14.952,0,0,1,13.544,14.867ZM-182.294-207.5A17.726,17.726,0,0,0-200-189.794v16.155a17.726,17.726,0,0,0,17.706,17.706,17.726,17.726,0,0,0,17.706-17.706v-16.155A17.726,17.726,0,0,0-182.294-207.5" transform="translate(200 207.5)"/>
  </g>
</svg>
